<?xml version="1.0" encoding="utf-8"?>
<!-- Generator: Adobe Illustrator 16.0.0, SVG Export Plug-In . SVG Version: 6.00 Build 0)  -->
<!DOCTYPE svg PUBLIC "-//W3C//DTD SVG 1.1//EN" "http://www.w3.org/Graphics/SVG/1.1/DTD/svg11.dtd">
<svg version="1.1" id="Layer_1" xmlns="http://www.w3.org/2000/svg" xmlns:xlink="http://www.w3.org/1999/xlink" x="0px" y="0px"
	 width="32px" height="32px" viewBox="0 0 32 32" enable-background="new 0 0 32 32" xml:space="preserve">
<g>
	<path fill="none" stroke="#000000" stroke-miterlimit="10" d="M-750-12.929"/>
	<path fill="none" stroke="#000000" stroke-miterlimit="10" d="M-861,109.071c-38.201,0-78.644-43.496-80.5-51.438
		c-1.763-7.54-12.643-59.896-12.5-73.563c0.611-58.391,21.955-98.667,89.334-98.667"/>
	<path fill="none" stroke="#000000" stroke-miterlimit="10" d="M-861,109.071c38.181-1.252,77.176-46.049,78.771-54.049
		c1.515-7.594,10.674-60.277,10.082-73.932c-0.243-5.627-0.674-11.079-1.313-16.335c-5.996-49.245-30.357-81.346-91.206-79.351"/>
	<g>
		<path fill="none" stroke="#000000" stroke-miterlimit="10" d="M-777.5-23.429c0,22.091-12.408,35.5-34.5,35.5
			s-38.258-13.153-38.258-35.245c0-16,17.109-20.755,39.201-20.755S-777.5-41.429-777.5-23.429z"/>
		<path fill="none" stroke="#000000" stroke-miterlimit="10" d="M-875.5-23.429c0,22.091-12.408,35.5-34.5,35.5
			s-38.258-13.153-38.258-35.245c0-16,17.109-20.755,39.201-20.755S-875.5-41.429-875.5-23.429z"/>
		<path fill="none" stroke="#000000" stroke-miterlimit="10" d="M-875.5-26.096c0,0,11.731-3.333,25.449,0"/>
		<path fill="none" stroke="#000000" stroke-miterlimit="10" d="M-875.5-24.096c0,0,11.731-3.333,25.449,0"/>
	</g>
	<g>
		<g>
			<path stroke="#000000" stroke-miterlimit="10" d="M-863,36.571c0,0-37.537-1.443-48.358,25c0,0-4.013,32.221,8.987,49.221
				c0,0,10.934,7.812,39.371,7.279"/>
			<path stroke="#000000" stroke-miterlimit="10" d="M-863,36.571c0,0,37.537-1.443,48.358,25c0,0,4.013,32.221-8.987,49.221
				c0,0-10.934,7.812-39.371,7.279"/>
		</g>
		<g>
			<path fill="#FFFFFF" stroke="#000000" stroke-miterlimit="10" d="M-863,51.404c0,0-10.859-0.676-22.666,1.334
				c-4.607,0.784-9.446,0.938-13.668,3.333c-11.166,6.334-1.666,25,1.001,27.667s9.656,4.114,13.753,1.833
				c4.791-2.667,1.803-12.993,3.08-17.833c1.167-4.422,13.588-3.578,18.588-3.5"/>
			<path fill="#FFFFFF" stroke="#000000" stroke-miterlimit="10" d="M-863,51.404c0,0,10.849-0.824,22.682,1.023
				c4.617,0.721,9.459,0.81,13.713,3.146c11.251,6.181,2.008,24.975-0.622,27.678c-2.63,2.704-9.599,4.247-13.728,2.021
				c-4.826-2.601-1.979-12.967-3.323-17.788c-1.228-4.406-13.636-3.393-18.634-3.246"/>
			<path fill="#FFFFFF" stroke="#000000" stroke-miterlimit="10" d="M-838.353,53.025c-28.93,10.369-49.119,0-49.119,0"/>
		</g>
		<path fill="#FFFFFF" stroke="#000000" stroke-miterlimit="10" d="M-884.667,52.574c0,0,21.167,0.766,44.083-0.188"/>
	</g>
	<path fill="none" stroke="#000000" stroke-miterlimit="10" d="M-871.945-24.836c0,0,1.612,43.408-3.555,46.407
		c0,0-6.5,3.834-6.166,8.667c0.166,2.41,2.864,6.217,6.166,6.319c3.32,0.103,3.178-0.041,6.465-0.683"/>
	<path fill="none" stroke="#000000" stroke-miterlimit="10" d="M-854.945-24.836c0,0-1.354,43.418,3.832,46.386
		c0,0,6.522,3.795,6.217,8.63c-0.151,2.411-2.827,6.233-6.129,6.355c-3.319,0.122-3.178-0.022-6.468-0.645"/>
	<path fill="none" stroke="#000000" stroke-miterlimit="10" d="M-870.75-24.836c0,0,2.929,36.157,1.715,41.407
		c-1.215,5.25-3.715,7.25-4.715,11.25c-2.452,9.81,10.926,8.756,10.75,8.75"/>
	<path fill="none" stroke="#000000" stroke-miterlimit="10" d="M-856.154-24.814c0,0-3.203,36.134-2.028,41.393
		c1.175,5.261,3.659,7.279,4.629,11.286c2.378,9.827-10.992,8.673-10.816,8.668"/>
	<path stroke="#000000" stroke-miterlimit="10" d="M-869.156,35.898c0,0-4.622-1.22-6.56-1.157s0.216,1.143,1.364,1.268
		C-873.187,36.135-870.437,36.413-869.156,35.898z"/>
	<path stroke="#000000" stroke-miterlimit="10" d="M-857.449,35.868c0,0,4.633-1.182,6.569-1.102
		c1.938,0.078-0.226,1.141-1.375,1.256C-853.421,36.139-856.173,36.393-857.449,35.868z"/>
	<g>
		<line fill="none" stroke="#000000" stroke-miterlimit="10" x1="-941" y1="-27.429" x2="-884" y2="-27.429"/>
		<line fill="none" stroke="#000000" stroke-miterlimit="10" x1="-935" y1="-21.429" x2="-884" y2="-21.429"/>
		<line fill="none" stroke="#000000" stroke-miterlimit="10" x1="-935" y1="-15.429" x2="-884" y2="-15.429"/>
		<line fill="none" stroke="#000000" stroke-miterlimit="10" x1="-935" y1="-9.429" x2="-884" y2="-9.429"/>
		<line fill="none" stroke="#000000" stroke-miterlimit="10" x1="-935" y1="-3.429" x2="-884" y2="-3.429"/>
	</g>
	<g>
		<line fill="none" stroke="#000000" stroke-miterlimit="10" x1="-843" y1="-27.429" x2="-786" y2="-27.429"/>
		<line fill="none" stroke="#000000" stroke-miterlimit="10" x1="-837" y1="-21.429" x2="-786" y2="-21.429"/>
		<line fill="none" stroke="#000000" stroke-miterlimit="10" x1="-837" y1="-15.429" x2="-786" y2="-15.429"/>
		<line fill="none" stroke="#000000" stroke-miterlimit="10" x1="-837" y1="-9.429" x2="-786" y2="-9.429"/>
		<line fill="none" stroke="#000000" stroke-miterlimit="10" x1="-837" y1="-3.429" x2="-786" y2="-3.429"/>
	</g>
	<path fill="none" stroke="#000000" stroke-miterlimit="10" d="M-745.5-90.929"/>
	<path stroke="#000000" stroke-miterlimit="10" d="M-773.463-35.246c0,0-13.537-36.921-23.037-37.921
		c-10.338-1.088-26.568,9.904-53.758,9.904c-41.334,0-39.543-0.521-68.242-2.667s-28.896,26.727-34.813,34.725
		c-1.306,1.764-5.515-14.583-7.687-31.725c-1.521-12.001,4.801-23.216,6.998-28c5.744-12.5,19.36-24.997,54.002-33
		c17.186-3.97,66.09-10.49,85.5,0c30.839,16.667,28.331,37.117,31.834,39c0,0,4.086-8.905,18,0.667
		c6.479,4.458,9.749,13.717,9.907,28.333c0.223,20.469-3.123,28.352-6.241,31.833c-7.923,8.846-6.249,7.845-11.163,8.667"/>
	<path fill="none" stroke="#000000" stroke-miterlimit="10" d="M-761-24.096c0,0,2.335,14.5,0,21.333s-6.692,22.166-14.181,14.833"
		/>
	<path fill="none" stroke="#000000" stroke-miterlimit="10" d="M-951.063,12.053c-7.469,7.352-11.865-7.971-14.217-14.799
		c-2.352-6.827-0.053-21.333-0.053-21.333s2.267-15.536,9.299-12.86"/>
</g>
<path fill="none" stroke="#000000" stroke-width="0.25" stroke-miterlimit="10" d="M30.109,15.198"/>
<path fill="none" stroke="#000000" stroke-width="0.25" stroke-miterlimit="10" d="M16.025,30.677
	c-4.846,0-9.977-5.519-10.213-6.526c-0.223-0.957-1.604-7.6-1.586-9.333C4.304,7.41,7.013,2.299,15.561,2.299"/>
<path fill="none" stroke="#000000" stroke-width="0.25" stroke-miterlimit="10" d="M16.025,30.677
	c4.844-0.159,9.791-5.842,9.994-6.858c0.192-0.963,1.354-7.647,1.279-9.38c-0.031-0.713-0.086-1.406-0.167-2.072
	C26.371,6.12,23.28,2.046,15.561,2.299"/>
<path fill="none" stroke="#000000" stroke-width="0.25" stroke-miterlimit="10" d="M26.62,13.866c0,2.802-1.575,4.504-4.377,4.504
	c-2.803,0-4.854-1.668-4.854-4.471c0-2.03,2.17-2.633,4.975-2.633C25.165,11.266,26.62,11.582,26.62,13.866z"/>
<path fill="none" stroke="#000000" stroke-width="0.25" stroke-miterlimit="10" d="M14.186,13.866c0,2.802-1.573,4.504-4.377,4.504
	c-2.802,0-4.854-1.668-4.854-4.471c0-2.03,2.171-2.633,4.974-2.633S14.186,11.582,14.186,13.866z"/>
<path fill="none" stroke="#000000" stroke-width="0.25" stroke-miterlimit="10" d="M14.186,13.528c0,0,1.489-0.423,3.23,0"/>
<path fill="none" stroke="#000000" stroke-width="0.25" stroke-miterlimit="10" d="M14.186,13.781c0,0,1.489-0.423,3.23,0"/>
<path stroke="#000000" stroke-width="0.25" stroke-miterlimit="10" d="M15.772,21.478c0,0-4.763-0.183-6.137,3.172
	c0,0-0.508,4.087,1.142,6.244c0,0,1.388,0.991,4.995,0.923"/>
<path stroke="#000000" stroke-width="0.25" stroke-miterlimit="10" d="M15.772,21.478c0,0,4.763-0.183,6.135,3.172
	c0,0,0.51,4.087-1.14,6.244c0,0-1.387,0.991-4.995,0.923"/>
<g>
	<path fill="#FFFFFF" stroke="#000000" stroke-width="0.25" stroke-miterlimit="10" d="M15.772,23.36c0,0-1.378-0.085-2.876,0.169
		c-0.584,0.1-1.199,0.119-1.735,0.423c-1.416,0.804-0.21,3.172,0.128,3.51c0.339,0.338,1.226,0.522,1.745,0.232
		c0.608-0.339,0.229-1.648,0.392-2.263c0.146-0.561,1.723-0.454,2.357-0.444"/>
	<path fill="#FFFFFF" stroke="#000000" stroke-width="0.25" stroke-miterlimit="10" d="M15.772,23.36c0,0,1.376-0.104,2.877,0.13
		c0.587,0.092,1.2,0.104,1.739,0.4c1.428,0.784,0.256,3.168-0.078,3.511s-1.219,0.54-1.741,0.257
		c-0.612-0.33-0.252-1.645-0.422-2.256c-0.156-0.56-1.729-0.431-2.364-0.413"/>
	<path fill="#FFFFFF" stroke="#000000" stroke-width="0.25" stroke-miterlimit="10" d="M18.898,23.566c-3.67,1.315-6.23,0-6.23,0"/>
</g>
<path fill="#FFFFFF" stroke="#000000" stroke-width="0.25" stroke-miterlimit="10" d="M13.023,23.509c0,0,2.685,0.097,5.592-0.024"
	/>
<path fill="none" stroke="#000000" stroke-width="0.25" stroke-miterlimit="10" d="M14.638,13.688c0,0,0.204,5.507-0.452,5.888
	c0,0-0.824,0.486-0.781,1.099c0.021,0.306,0.363,0.789,0.781,0.803c0.422,0.012,0.403-0.006,0.821-0.087"/>
<path fill="none" stroke="#000000" stroke-width="0.25" stroke-miterlimit="10" d="M16.794,13.688c0,0-0.172,5.508,0.486,5.885
	c0,0,0.828,0.481,0.789,1.095c-0.021,0.306-0.359,0.791-0.777,0.806c-0.422,0.015-0.403-0.003-0.821-0.082"/>
<path fill="none" stroke="#000000" stroke-width="0.25" stroke-miterlimit="10" d="M14.788,13.688c0,0,0.372,4.587,0.219,5.253
	c-0.154,0.666-0.473,0.919-0.598,1.428c-0.313,1.244,1.386,1.11,1.363,1.109"/>
<path fill="none" stroke="#000000" stroke-width="0.25" stroke-miterlimit="10" d="M16.641,13.691c0,0-0.406,4.584-0.257,5.25
	c0.149,0.668,0.464,0.924,0.587,1.432c0.302,1.247-1.395,1.101-1.373,1.1"/>
<path stroke="#000000" stroke-width="0.25" stroke-miterlimit="10" d="M14.991,21.393c0,0-0.586-0.155-0.832-0.146
	c-0.245,0.008,0.026,0.145,0.172,0.161C14.479,21.423,14.828,21.458,14.991,21.393z"/>
<path stroke="#000000" stroke-width="0.25" stroke-miterlimit="10" d="M16.477,21.389c0,0,0.588-0.15,0.833-0.139
	c0.245,0.01-0.029,0.145-0.175,0.159C16.988,21.424,16.638,21.456,16.477,21.389z"/>
<path fill="none" stroke="#000000" stroke-width="0.25" stroke-miterlimit="10" d="M30.679,5.302"/>
<path stroke="#000000" stroke-width="0.25" stroke-miterlimit="10" d="M27.131,12.367c0,0-1.718-4.685-2.922-4.811
	c-1.312-0.139-3.37,1.256-6.82,1.256c-5.244,0-5.017-0.067-8.658-0.338C5.09,8.202,5.065,11.865,4.313,12.88
	c-0.165,0.223-0.698-1.85-0.975-4.026C3.146,7.333,3.947,5.909,4.227,5.302c0.729-1.586,2.457-3.171,6.851-4.187
	c2.182-0.503,8.386-1.331,10.848,0c3.913,2.115,3.595,4.71,4.039,4.948c0,0,0.519-1.13,2.285,0.085
	c0.82,0.565,1.236,1.739,1.256,3.595c0.028,2.596-0.396,3.596-0.792,4.038c-1.004,1.123-0.792,0.996-1.416,1.1"/>
<path fill="none" stroke="#000000" stroke-width="0.25" stroke-miterlimit="10" d="M28.713,13.781c0,0,0.297,1.84,0,2.707
	c-0.296,0.867-0.85,2.813-1.798,1.882"/>
<path fill="none" stroke="#000000" stroke-width="0.25" stroke-miterlimit="10" d="M4.6,18.367c-0.948,0.934-1.506-1.01-1.804-1.877
	c-0.298-0.866-0.007-2.707-0.007-2.707s0.287-1.97,1.18-1.631"/>
<path fill="none" stroke="#000000" stroke-miterlimit="10" d="M-498-12.929"/>
<path fill="#F0BD64" stroke="#000000" stroke-miterlimit="10" d="M-609,109.071c-38.201,0-78.644-43.496-80.5-51.438
	c-1.763-7.54-12.643-59.896-12.5-73.563c0.611-58.391,21.955-98.667,89.334-98.667"/>
<path fill="#F0BD64" stroke="#000000" stroke-miterlimit="10" d="M-609,109.071c38.181-1.252,77.176-46.049,78.771-54.049
	c1.515-7.594,10.674-60.277,10.082-73.932c-0.243-5.627-0.674-11.079-1.313-16.335c-5.996-49.245-30.357-81.346-91.206-79.351"/>
<g>
	<path fill="none" stroke="#000000" stroke-miterlimit="10" d="M-525.5-23.429c0,22.091-12.408,35.5-34.5,35.5
		s-38.258-13.153-38.258-35.245c0-16,17.109-20.755,39.201-20.755S-525.5-41.429-525.5-23.429z"/>
	<path fill="none" stroke="#000000" stroke-miterlimit="10" d="M-623.5-23.429c0,22.091-12.408,35.5-34.5,35.5
		s-38.258-13.153-38.258-35.245c0-16,17.109-20.755,39.201-20.755S-623.5-41.429-623.5-23.429z"/>
	<path fill="none" stroke="#000000" stroke-miterlimit="10" d="M-623.5-26.096c0,0,11.731-3.333,25.449,0"/>
	<path fill="none" stroke="#000000" stroke-miterlimit="10" d="M-623.5-24.096c0,0,11.731-3.333,25.449,0"/>
</g>
<g>
	<path stroke="#000000" stroke-miterlimit="10" d="M-611,36.571c0,0-37.537-1.443-48.358,25c0,0-4.013,32.221,8.987,49.221
		c0,0,10.934,7.812,39.371,7.279"/>
	<path stroke="#000000" stroke-miterlimit="10" d="M-611,36.571c0,0,37.537-1.443,48.358,25c0,0,4.013,32.221-8.987,49.221
		c0,0-10.934,7.812-39.371,7.279"/>
</g>
<path fill="#F1BC65" d="M-611,51.404c0,0-10.859-0.676-22.666,1.334c-4.607,0.784-9.446,0.938-13.668,3.333
	c-11.166,6.334-1.666,25,1.001,27.667s9.656,4.114,13.753,1.833c4.791-2.667,1.803-12.993,3.08-17.833
	c1.167-4.422,13.588-3.578,18.588-3.5"/>
<path fill="#F1BC65" d="M-611,51.404c0,0,10.849-0.824,22.682,1.023c4.617,0.721,9.459,0.81,13.713,3.146
	c11.251,6.181,2.008,24.975-0.622,27.678c-2.63,2.704-9.599,4.247-13.728,2.021c-4.826-2.601-1.979-12.967-3.323-17.788
	c-1.228-4.406-13.636-3.393-18.634-3.246"/>
<path fill="#FFFFFF" stroke="#000000" stroke-miterlimit="10" d="M-632.667,52.574c0,0,21.167,0.766,44.083-0.188"/>
<path fill="none" stroke="#000000" stroke-miterlimit="10" d="M-619.945-24.836c0,0,1.612,43.408-3.555,46.407
	c0,0-6.5,3.834-6.166,8.667c0.166,2.41,2.864,6.217,6.166,6.319c3.32,0.103,3.178-0.041,6.465-0.683"/>
<path fill="none" stroke="#000000" stroke-miterlimit="10" d="M-602.945-24.836c0,0-1.354,43.418,3.832,46.386
	c0,0,6.522,3.795,6.217,8.63c-0.151,2.411-2.827,6.233-6.129,6.355c-3.319,0.122-3.178-0.022-6.468-0.645"/>
<path fill="none" stroke="#000000" stroke-miterlimit="10" d="M-618.75-24.836c0,0,2.929,36.157,1.715,41.407
	c-1.215,5.25-3.715,7.25-4.715,11.25c-2.452,9.81,10.926,8.756,10.75,8.75"/>
<path fill="none" stroke="#000000" stroke-miterlimit="10" d="M-604.154-24.814c0,0-3.203,36.134-2.028,41.393
	c1.175,5.261,3.659,7.279,4.629,11.286c2.378,9.827-10.992,8.673-10.816,8.668"/>
<path stroke="#000000" stroke-miterlimit="10" d="M-617.156,35.898c0,0-4.622-1.22-6.56-1.157s0.216,1.143,1.364,1.268
	C-621.187,36.135-618.437,36.413-617.156,35.898z"/>
<path stroke="#000000" stroke-miterlimit="10" d="M-605.449,35.868c0,0,4.633-1.182,6.569-1.102
	c1.938,0.078-0.226,1.141-1.375,1.256C-601.421,36.139-604.173,36.393-605.449,35.868z"/>
<g>
	<line fill="none" stroke="#000000" stroke-miterlimit="10" x1="-689" y1="-27.429" x2="-632" y2="-27.429"/>
	<line fill="none" stroke="#000000" stroke-miterlimit="10" x1="-683" y1="-21.429" x2="-632" y2="-21.429"/>
	<line fill="none" stroke="#000000" stroke-miterlimit="10" x1="-683" y1="-15.429" x2="-632" y2="-15.429"/>
	<line fill="none" stroke="#000000" stroke-miterlimit="10" x1="-683" y1="-9.429" x2="-632" y2="-9.429"/>
	<line fill="none" stroke="#000000" stroke-miterlimit="10" x1="-683" y1="-3.429" x2="-632" y2="-3.429"/>
</g>
<g>
	<line fill="none" stroke="#000000" stroke-miterlimit="10" x1="-591" y1="-27.429" x2="-534" y2="-27.429"/>
	<line fill="none" stroke="#000000" stroke-miterlimit="10" x1="-585" y1="-21.429" x2="-534" y2="-21.429"/>
	<line fill="none" stroke="#000000" stroke-miterlimit="10" x1="-585" y1="-15.429" x2="-534" y2="-15.429"/>
	<line fill="none" stroke="#000000" stroke-miterlimit="10" x1="-585" y1="-9.429" x2="-534" y2="-9.429"/>
	<line fill="none" stroke="#000000" stroke-miterlimit="10" x1="-585" y1="-3.429" x2="-534" y2="-3.429"/>
</g>
<path fill="none" stroke="#000000" stroke-miterlimit="10" d="M-493.5-90.929"/>
<path stroke="#000000" stroke-miterlimit="10" d="M-521.463-35.246c0,0-13.537-36.921-23.037-37.921
	c-10.338-1.088-26.568,9.904-53.758,9.904c-41.334,0-39.543-0.521-68.242-2.667s-28.896,26.727-34.813,34.725
	c-1.306,1.764-5.515-14.583-7.687-31.725c-1.521-12.001,4.801-23.216,6.998-28c5.744-12.5,19.36-24.997,54.002-33
	c17.186-3.97,66.09-10.49,85.5,0c30.839,16.667,28.331,37.117,31.834,39c0,0,4.086-8.905,18,0.667
	c6.479,4.458,9.749,13.717,9.907,28.333c0.223,20.469-3.123,28.352-6.241,31.833c-7.923,8.846-6.249,7.845-11.163,8.667"/>
<path fill="#D5853E" stroke="#000000" stroke-miterlimit="10" d="M-523.181,12.071c7.651,7.163,11.846-8,14.181-14.833
	s0-21.333,0-21.333s-3.976,5.702-6.571,7.226s-3.432,2.607-4.012,2.024S-523.548,11.727-523.181,12.071z"/>
<path fill="#D98B47" stroke="#000000" stroke-miterlimit="10" d="M-699.063,12.053c-7.469,7.352-11.865-7.971-14.217-14.799
	c-2.352-6.827-0.053-21.333-0.053-21.333s2.267-15.536,9.299-12.86"/>
<path fill="#FFFFFF" stroke="#000000" stroke-miterlimit="10" d="M-586.353,53.025c-28.93,10.369-49.119,0-49.119,0"/>
<path fill="#FFFFFF" d="M-629.585,52.139c0,0,3.399-0.258,7.246-0.501c3.677-0.232,7.762-0.451,9.674-0.417
	c1.942,0.035,7.758-0.098,12.666,0.097c4.974,0.198,9.034,0.724,9.921,0.853C-588.318,52.427-628.396,52.403-629.585,52.139z"/>
<polygon fill="#D98B47" points="-703.896,-34.471 -702.375,-20.242 -701.833,-30.596 "/>
<path fill="#D5853E" d="M-523-21.429l2.104-0.5c0,0,0.407,3.917,0.239,7.958c-0.166,4.042-4.817,37.354-4.817,37.354l-5.68,31.946
	l-7.006,11.075l-10.713,11.336l1.374-6.044l11.749-16.367L-531,36.187l2.979-22.991L-523-17.261V-21.429z"/>
<path fill="#D5853E" d="M-698.924-19.056l-2.118-0.437c0,0-0.291,3.927-0.001,7.961c0.287,4.035,5.934,37.193,5.934,37.193
	l6.634,31.761l7.335,10.861l11.047,11.01l-1.554-6l-12.234-16.008l-5.321-18.991l-3.667-22.892l-5.93-30.293L-698.924-19.056z"/>
<rect x="15.688" y="24.274" fill="#FFFFFF" width="0.132" height="0.563"/>
<polygon points="15,25.071 16,25.071 16.025,31.602 15.281,31.211 "/>
<polyline points="15.948,31.821 16.025,31.915 15.888,31.53 15.688,31.425 15.688,31.883 "/>
<rect x="15.688" y="21.571" width="0.234" height="1.914"/>
<g>
	<g>
		<path d="M6,13.696c2.333,0,4.667,0,7,0c0.002,0,0.002-0.25,0-0.25c-2.333,0-4.667,0-7,0C5.998,13.446,5.998,13.696,6,13.696
			L6,13.696z"/>
	</g>
</g>
<g>
	<g>
		<path d="M7.251,14.696c1.916,0,3.833,0,5.749,0c0.002,0,0.002-0.25,0-0.25c-1.916,0-3.833,0-5.749,0
			C7.249,14.446,7.249,14.696,7.251,14.696L7.251,14.696z"/>
	</g>
</g>
<g>
	<g>
		<path d="M7.251,15.696c1.916,0,3.833,0,5.749,0c0.002,0,0.002-0.25,0-0.25c-1.916,0-3.833,0-5.749,0
			C7.249,15.446,7.249,15.696,7.251,15.696L7.251,15.696z"/>
	</g>
</g>
<g>
	<g>
		<path d="M7.251,16.696c1.916,0,3.833,0,5.749,0c0.002,0,0.002-0.25,0-0.25c-1.916,0-3.833,0-5.749,0
			C7.249,16.446,7.249,16.696,7.251,16.696L7.251,16.696z"/>
	</g>
</g>
<g>
	<g>
		<path d="M18,13.696c2.333,0,4.667,0,7,0c0.002,0,0.002-0.25,0-0.25c-2.333,0-4.667,0-7,0C17.998,13.446,17.998,13.696,18,13.696
			L18,13.696z"/>
	</g>
</g>
<g>
	<g>
		<path d="M19.251,14.696c1.916,0,3.833,0,5.749,0c0.002,0,0.002-0.25,0-0.25c-1.916,0-3.833,0-5.749,0
			C19.249,14.446,19.249,14.696,19.251,14.696L19.251,14.696z"/>
	</g>
</g>
<g>
	<g>
		<path d="M19.251,15.696c1.916,0,3.833,0,5.749,0c0.002,0,0.002-0.25,0-0.25c-1.916,0-3.833,0-5.749,0
			C19.249,15.446,19.249,15.696,19.251,15.696L19.251,15.696z"/>
	</g>
</g>
<g>
	<g>
		<path d="M19.251,16.696c1.916,0,3.833,0,5.749,0c0.002,0,0.002-0.25,0-0.25c-1.916,0-3.833,0-5.749,0
			C19.249,16.446,19.249,16.696,19.251,16.696L19.251,16.696z"/>
	</g>
</g>
</svg>
